<?xml version="1.0" encoding="UTF-8"?>
<svg width="" height="" viewBox="0 0 16 15" version="1.1" xmlns="http://www.w3.org/2000/svg" xmlns:xlink="http://www.w3.org/1999/xlink">
    <title>blog</title>
    <defs>
        <polygon id="path-1" points="0 0.0363029333 15.9685105 0.0363029333 15.9685105 13.4698667 0 13.4698667"></polygon>
    </defs>
    <g id="Symbols" stroke="none" stroke-width="1" fill="none" fill-rule="evenodd">
        <g id="Footer" transform="translate(-368.000000, -169.000000)">
            <g id="sns-icon" transform="translate(360.000000, 160.000000)">
                <g id="blog" transform="translate(8.000000, 9.000000)">
                    <path d="M8.93039019,5.45776 C8.58263765,5.45776 8.30289152,5.73750613 8.30289152,6.0855872 C8.30289152,6.43186133 8.58263765,6.71259307 8.93039019,6.71259307 C9.27715712,6.71259307 9.55805312,6.43186133 9.55805312,6.0855872 C9.55805312,5.73750613 9.27715712,5.45776 8.93039019,5.45776" id="Fill-1" fill="#999aa9"></path>
                    <path d="M12.6956779,5.45776 C12.3490752,5.45776 12.0673579,5.73750613 12.0673579,6.0855872 C12.0673579,6.43186133 12.3490752,6.71259307 12.6956779,6.71259307 C13.0426091,6.71259307 13.3230123,6.43186133 13.3230123,6.0855872 C13.3230123,5.73750613 13.0426091,5.45776 12.6956779,5.45776" id="Fill-3" fill="#999aa9"></path>
                    <g id="Group-7" transform="translate(0.000000, 0.128013)">
                        <mask id="mask-2" fill="white">
                            <use xlink:href="#path-1"></use>
                        </mask>
                        <g id="Clip-6"></g>
                        <path d="M14.2300764,7.30704128 C14.2300764,8.84868395 12.8014492,8.8332459 12.8014492,8.8332459 L12.4205148,8.8332459 L12.4205148,7.96755755 L12.6567302,7.96755755 C13.3492785,7.96755755 13.2796294,7.25316181 13.2796294,7.25316181 L13.2796294,7.02466688 C12.9749148,7.41907115 12.4205148,7.39788075 12.4205148,7.39788075 C11.0613724,7.39788075 11.0763171,5.94707755 11.0763171,5.94707755 C11.0763171,4.38999381 12.4586246,4.44995115 12.4586246,4.44995115 C12.9985692,4.44995115 13.2796294,4.82250795 13.2796294,4.82250795 L13.2796294,4.54539008 L14.2300764,4.54539008 L14.2300764,7.30704128 Z M10.5826993,5.95759061 C10.5826993,7.44371115 8.93001237,7.44666795 8.93001237,7.44666795 C7.26270571,7.44666795 7.31395691,5.95759061 7.31395691,5.95759061 C7.31395691,4.44995115 8.93001237,4.44995115 8.93001237,4.44995115 C10.6372358,4.44995115 10.5826993,5.95759061 10.5826993,5.95759061 L10.5826993,5.95759061 Z M6.62600811,4.71014955 L6.62600811,7.34367275 L5.68295317,7.34367275 L5.68295317,4.93388075 C5.68295317,4.10187008 5.23828331,4.12207488 5.23828331,4.12207488 L5.23828331,3.17754155 C6.66658197,3.17754155 6.62600811,4.71014955 6.62600811,4.71014955 L6.62600811,4.71014955 Z M3.54666517,7.44666795 C2.95776917,7.44666795 2.72483904,7.02466688 2.72483904,7.02466688 L2.72483904,7.34367275 L1.73776064,7.34367275 L1.73776064,3.27133781 L2.71399744,3.27133781 L2.71399744,4.82250795 C3.11020864,4.43582421 3.54666517,4.43582421 3.54666517,4.43582421 C4.87229717,4.43582421 4.92338411,5.92358741 4.92338411,5.92358741 C4.92338411,7.39393835 3.54666517,7.44666795 3.54666517,7.44666795 L3.54666517,7.44666795 Z M13.4453745,0.03627008 L2.52114837,0.03627008 C1.12685291,0.03627008 -1.64266667e-05,1.17102421 -1.64266667e-05,2.56761941 L-1.64266667e-05,8.57304448 C-1.64266667e-05,9.96996821 1.12685291,11.1027511 2.52114837,11.1027511 L6.28449771,11.1027511 L7.56906304,13.1930445 C7.56906304,13.1930445 7.58220437,13.2189986 7.60980117,13.2533303 C7.68536384,13.3826082 7.82400491,13.4699981 7.98416491,13.4699981 C8.14251797,13.4699981 8.27935211,13.3826082 8.35507904,13.2566157 C8.38760384,13.2189986 8.39910251,13.1930445 8.39910251,13.1930445 L9.68186091,11.1027511 L13.4453745,11.1027511 C14.8381916,11.1027511 15.9685105,9.96996821 15.9685105,8.57304448 L15.9685105,2.56761941 C15.9685105,1.17102421 14.8381916,0.03627008 13.4453745,0.03627008 L13.4453745,0.03627008 Z" id="Fill-5" fill="#999aa9" mask="url(#mask-2)"></path>
                    </g>
                    <path d="M3.33055595,5.45776 C2.98346048,5.45776 2.70322155,5.73750613 2.70322155,6.0855872 C2.70322155,6.43186133 2.98346048,6.71259307 3.33055595,6.71259307 C3.67732288,6.71259307 3.95821888,6.43186133 3.95821888,6.0855872 C3.95821888,5.73750613 3.67732288,5.45776 3.33055595,5.45776" id="Fill-8" fill="#999aa9"></path>
                </g>
            </g>
        </g>
    </g>
</svg>