<?xml version="1.0" encoding="UTF-8"?>
<svg width="" height="" viewBox="0 0 16 16" version="1.1" xmlns="http://www.w3.org/2000/svg" xmlns:xlink="http://www.w3.org/1999/xlink">
    <title>cafe</title>
    <defs>
        <polygon id="path-1" points="0.0837766259 0.139143529 7.15177144 0.139143529 7.15177144 3.828748 0.0837766259 3.828748"></polygon>
        <polygon id="path-3" points="0 0.0607122353 15.2537906 0.0607122353 15.2537906 9.42117647 0 9.42117647"></polygon>
    </defs>
    <g id="Symbols" stroke="none" stroke-width="1" fill="none" fill-rule="evenodd">
        <g id="Footer" transform="translate(-409.000000, -168.000000)">
            <g id="sns-icon" transform="translate(360.000000, 160.000000)">
                <g id="cafe" transform="translate(40.000000, 0.000000)">
                    <g transform="translate(9.000000, 8.000000)">
                        <g id="Group-3" transform="translate(3.080000, 0.042033)">
                            <mask id="mask-2" fill="white">
                                <use xlink:href="#path-1"></use>
                            </mask>
                            <g id="Clip-2"></g>
                            <path d="M0.27104,3.828748 L4.07592706,3.828748 C4.08607294,3.828748 4.09476941,3.82856682 4.10509647,3.82729859 C4.13390353,3.82186329 7.10103059,3.34192682 7.15177144,0.330955059 C7.15230353,0.280588 7.13346118,0.231670353 7.09813176,0.195797412 C7.06135294,0.159199765 7.01207294,0.139089176 6.96170588,0.139089176 L3.36064235,0.141082118 C3.33219765,0.145249176 0.338437647,0.606162118 0.0849717647,3.62438094 C0.0786305882,3.67728447 0.0978352941,3.72837624 0.135157647,3.76841624 C0.169037647,3.80773153 0.219767059,3.828748 0.27104,3.828748" id="Fill-1" fill="#999aa9" mask="url(#mask-2)"></path>
                        </g>
                        <g id="Group-6" transform="translate(0.000000, 5.296151)">
                            <mask id="mask-4" fill="white">
                                <use xlink:href="#path-3"></use>
                            </mask>
                            <g id="Clip-5"></g>
                            <path d="M12.9562193,3.38457576 C12.3539887,3.38457576 11.8653558,2.89684871 11.8653558,2.29316871 C11.8653558,1.69003224 12.3539887,1.20194282 12.9562193,1.20194282 C13.557544,1.20194282 14.0467205,1.69003224 14.0467205,2.29316871 C14.0467205,2.89684871 13.557544,3.38457576 12.9562193,3.38457576 M13.0083981,0.0607122353 L11.4220169,0.0607122353 L9.54031812,0.0607122353 L0.188713412,0.0607122353 C0.0850804706,0.0607122353 -7.24705882e-05,0.144053412 -7.24705882e-05,0.249498118 L-7.24705882e-05,3.68895224 C-7.24705882e-05,3.68895224 0.117511059,9.42119459 5.80409694,9.42119459 C10.0996099,9.42119459 11.2187369,6.15295224 11.5068075,4.55298282 L13.0083981,4.55298282 C14.2467393,4.55298282 15.2538993,3.54564165 15.2538993,2.30566988 C15.2538993,1.06805341 14.2467393,0.0607122353 13.0083981,0.0607122353" id="Fill-4" fill="#999aa9" mask="url(#mask-4)"></path>
                        </g>
                    </g>
                </g>
            </g>
        </g>
    </g>
</svg>