<svg xmlns="http://www.w3.org/2000/svg" xmlns:xlink="http://www.w3.org/1999/xlink" width="" height="" viewBox="0 0 24 24">
    <defs>
        <path id="04aigxkpya" d="M0 0L20 0 20 20 0 20z"/>
    </defs>
    <g fill="none" fill-rule="evenodd">
        <g>
            <g>
                <path d="M0 0H24V24H0z" transform="translate(-64 -106) translate(64 106)"/>
                <g transform="translate(-64 -106) translate(64 106) translate(2 2)">
                    <mask id="fs4ya5blgb" fill="#fff">
                        <use xlink:href="#04aigxkpya"/>
                    </mask>
                    <path fill="#36364B" d="M18 2v2c0 1.105-.896 2-2 2s-2-.895-2-2V2h4zm-4 16v-4c0-2.21-1.791-4-4-4s-4 1.79-4 4v4H2V7.44c1.646.983 3.76.632 5-.83 1.419 1.657 3.913 1.85 5.569.43.155-.131.299-.275.431-.43 1.239 1.462 3.354 1.813 5 .83V18h-4zm-6 0v-4c0-1.104.896-2 2-2s2 .896 2 2v4H8zM2 2h4v2c0 1.105-.896 2-2 2s-2-.895-2-2V2zm10 0v2c0 1.105-.896 2-2 2s-2-.895-2-2V2h4zm0-2H0v20h20V0h-8z" mask="url(#fs4ya5blgb)"/>
                </g>
            </g>
        </g>
    </g>
</svg>
