<?xml version="1.0" encoding="UTF-8"?>
<svg width="" height="" viewBox="0 0 16 11" version="1.1" xmlns="http://www.w3.org/2000/svg" xmlns:xlink="http://www.w3.org/1999/xlink">
    <title>youtube</title>
    <defs>
        <polygon id="path-1" points="0 3.39705882e-05 15.2867647 3.39705882e-05 15.2867647 10.7518271 0 10.7518271"></polygon>
    </defs>
    <g id="Symbols" stroke="none" stroke-width="1" fill="none" fill-rule="evenodd">
        <g id="Footer" transform="translate(-488.000000, -171.000000)">
            <g id="sns-icon" transform="translate(360.000000, 160.000000)">
                <g id="youtube" transform="translate(120.000000, 0.000000)">
                    <g transform="translate(8.000000, 11.000000)">
                        <mask id="mask-2" fill="white">
                            <use xlink:href="#path-1"></use>
                        </mask>
                        <g id="Clip-2"></g>
                        <path d="M6.06527868,7.35874279 L6.06459926,3.06367147 L10.1950831,5.21859574 L6.06527868,7.35874279 Z M15.1342368,2.31954574 C15.1342368,2.31954574 14.9847662,1.26611779 14.5263331,0.802079559 C13.9452662,0.193326618 13.2935404,0.190439118 12.9947691,0.15477 C10.8556412,3.39705882e-05 7.64677941,3.39705882e-05 7.64677941,3.39705882e-05 L7.63998529,3.39705882e-05 C7.63998529,3.39705882e-05 4.43129338,3.39705882e-05 2.29199559,0.15477 C1.99322426,0.190439118 1.34183824,0.193326618 0.760431618,0.802079559 C0.301998529,1.26611779 0.152867647,2.31954574 0.152867647,2.31954574 C0.152867647,2.31954574 0,3.55658471 0,4.79362368 L0,5.95354941 C0,7.19041853 0.152867647,8.4274575 0.152867647,8.4274575 C0.152867647,8.4274575 0.301998529,9.48088544 0.760431618,9.94492368 C1.34183824,10.5538465 2.10566691,10.5343134 2.44588235,10.5981781 C3.66899338,10.7155465 7.64338235,10.751895 7.64338235,10.751895 C7.64338235,10.751895 10.8556412,10.7469693 12.9947691,10.5924031 C13.2935404,10.556734 13.9452662,10.5538465 14.5263331,9.94492368 C14.9847662,9.48088544 15.1342368,8.4274575 15.1342368,8.4274575 C15.1342368,8.4274575 15.2867647,7.19041853 15.2867647,5.95354941 L15.2867647,4.79362368 C15.2867647,3.55658471 15.1342368,2.31954574 15.1342368,2.31954574 L15.1342368,2.31954574 Z" id="Fill-1" fill="#999aa9" mask="url(#mask-2)"></path>
                    </g>
                </g>
            </g>
        </g>
    </g>
</svg>