<svg xmlns="http://www.w3.org/2000/svg" xmlns:xlink="http://www.w3.org/1999/xlink" width="" height="" viewBox="0 0 110 44">
    <defs>
        <filter id="1kegq9rzpa">
            <feColorMatrix in="SourceGraphic" values="0 0 0 0 0.066667 0 0 0 0 0.066667 0 0 0 0 0.066667 0 0 0 1.000000 0"/>
        </filter>
        <filter id="gk3jr6ukmb">
            <feColorMatrix in="SourceGraphic" values="0 0 0 0 1.000000 0 0 0 0 1.000000 0 0 0 0 1.000000 0 0 0 1.000000 0"/>
        </filter>
        <path id="7imzgj7amc" d="M0.179 0.234L29.786 0.234 29.786 30.987 0.179 30.987z"/>
    </defs>
    <g fill="none" fill-rule="evenodd">
        <g>
            <g>
                <g filter="url(#1kegq9rzpa)" transform="translate(-480 -1298) translate(120 1280) translate(0 18)">
                    <g filter="url(#gk3jr6ukmb)" transform="translate(360)">
                        <path fill="#383939" d="M9.093 39.692c5.3 0 5.3-7.99 0-7.99-5.347 0-5.347 7.99 0 7.99zm0-12.033c10.848 0 10.673 16.21 0 16.21-10.762 0-10.933-16.21 0-16.21zM0 21.388h7.072V17.98H1.71V3.176h15.287v4.089H6.11v6.632h10.89v4.083h-5.27v3.408h6.941v4.035H0v-4.035zM46.959 24.7h-4.351V2.606h4.35V8.45h5.382v4.263h-5.381v11.985zM30.51 14.907c5.293 0 5.42-8.017 0-8.017-5.417 0-5.247 8.017 0 8.017zm0-12.183c10.883 0 10.839 16.254 0 16.254-10.787 0-10.835-16.254 0-16.254zM64.784 11.269l-4.082 6.711h-4.966l6.381-9.925H57.1V4.028h5.403V0h4.48v4.028h5.49v4.027H67.36l6.383 9.925h-4.915l-4.044-6.711zm2.372 16.005h5.315v9.17h-10.85V38.7H73v3.5H57.099v-9.21h10.85v-2.34h-10.85v-3.376h5.49v-2.856h-7.203v-4.033h18.708v4.033h-6.938v2.856z"/>
                        <g transform="translate(79.072 2.42)">
                            <mask id="9j04dooi1d" fill="#fff">
                                <use xlink:href="#7imzgj7amc"/>
                            </mask>
                            <path fill="#383939" d="M24.444 16.58H20.1V.235h4.344V6.03h5.342v4.13h-5.342v6.42zM9.305 18.24h4.347v8.659h10.992v4.089H9.305V18.239zm-3.05-6.615h3.44v-6.84h-3.44v6.84zm-6.076 0h1.874v-6.84H.179V.847h15.679v3.937h-2.092v6.84h2.092v3.982H.178v-3.982z" mask="url(#9j04dooi1d)"/>
                        </g>
                    </g>
                </g>
            </g>
        </g>
    </g>
</svg>
